<svg width="29" height="25" viewBox="0 0 29 25" fill="none" xmlns="http://www.w3.org/2000/svg">
<path d="M9.4101 21.17C9.2201 21.17 9.0301 21.1 8.8801 20.95C8.5901 20.66 8.5901 20.18 8.8801 19.89L15.4001 13.37C15.8801 12.89 15.8801 12.11 15.4001 11.63L8.8801 5.11002C8.5901 4.82002 8.5901 4.34002 8.8801 4.05002C9.1701 3.76002 9.6501 3.76002 9.9401 4.05002L16.4601 10.57C16.9701 11.08 17.2601 11.77 17.2601 12.5C17.2601 13.23 16.9801 13.92 16.4601 14.43L9.9401 20.95C9.7901 21.09 9.6001 21.17 9.4101 21.17Z" fill="#FEFEFE"/>
<path d="M18.4096 21.17C18.2196 21.17 18.0296 21.1 17.8796 20.95C17.5896 20.66 17.5896 20.18 17.8796 19.89L24.3996 13.37C24.8796 12.89 24.8796 12.11 24.3996 11.63L17.8796 5.11002C17.5896 4.82002 17.5896 4.34002 17.8796 4.05002C18.1696 3.76002 18.6496 3.76002 18.9396 4.05002L25.4596 10.57C25.9696 11.08 26.2596 11.77 26.2596 12.5C26.2596 13.23 25.9796 13.92 25.4596 14.43L18.9396 20.95C18.7896 21.09 18.5996 21.17 18.4096 21.17Z" fill="#FEFEFE"/>
</svg>
