<svg width="29" height="25" viewBox="0 0 29 25" fill="none" xmlns="http://www.w3.org/2000/svg">
<path d="M19.5899 21.17C19.7799 21.17 19.9699 21.1 20.1199 20.95C20.4099 20.66 20.4099 20.18 20.1199 19.89L13.5999 13.37C13.1199 12.89 13.1199 12.11 13.5999 11.63L20.1199 5.11002C20.4099 4.82002 20.4099 4.34002 20.1199 4.05002C19.8299 3.76002 19.3499 3.76002 19.0599 4.05002L12.5399 10.57C12.0299 11.08 11.7399 11.77 11.7399 12.5C11.7399 13.23 12.0199 13.92 12.5399 14.43L19.0599 20.95C19.2099 21.09 19.3999 21.17 19.5899 21.17Z" fill="#FEFEFE"/>
<path d="M10.5904 21.17C10.7804 21.17 10.9704 21.1 11.1204 20.95C11.4104 20.66 11.4104 20.18 11.1204 19.89L4.60039 13.37C4.12039 12.89 4.12039 12.11 4.60039 11.63L11.1204 5.11002C11.4104 4.82002 11.4104 4.34002 11.1204 4.05002C10.8304 3.76002 10.3504 3.76002 10.0604 4.05002L3.54039 10.57C3.03039 11.08 2.74039 11.77 2.74039 12.5C2.74039 13.23 3.02039 13.92 3.54039 14.43L10.0604 20.95C10.2104 21.09 10.4004 21.17 10.5904 21.17Z" fill="#FEFEFE"/>
</svg>
