<svg width="24" height="25" viewBox="0 0 24 25" fill="none" xmlns="http://www.w3.org/2000/svg">
<g id="vuesax/bold/call-calling">
<g id="call-calling">
<path id="Vector" d="M17.62 11.4869C17.19 11.4869 16.85 11.1369 16.85 10.7169C16.85 10.3469 16.48 9.57691 15.86 8.90691C15.25 8.25691 14.58 7.87691 14.02 7.87691C13.59 7.87691 13.25 7.52691 13.25 7.10691C13.25 6.68691 13.6 6.33691 14.02 6.33691C15.02 6.33691 16.07 6.87691 16.99 7.84691C17.85 8.75691 18.4 9.88691 18.4 10.7069C18.4 11.1369 18.05 11.4869 17.62 11.4869Z" fill="#375288"/>
<path id="Vector_2" d="M21.2298 11.4868C20.7998 11.4868 20.4598 11.1368 20.4598 10.7168C20.4598 7.16682 17.5698 4.28682 14.0298 4.28682C13.5998 4.28682 13.2598 3.93682 13.2598 3.51682C13.2598 3.09682 13.5998 2.73682 14.0198 2.73682C18.4198 2.73682 21.9998 6.31682 21.9998 10.7168C21.9998 11.1368 21.6498 11.4868 21.2298 11.4868Z" fill="#375288"/>
<path id="Vector_3" d="M11.05 15.6868L9.2 17.5368C8.81 17.9268 8.19 17.9268 7.79 17.5468C7.68 17.4368 7.57 17.3368 7.46 17.2268C6.43 16.1868 5.5 15.0968 4.67 13.9568C3.85 12.8168 3.19 11.6768 2.71 10.5468C2.24 9.40682 2 8.31682 2 7.27682C2 6.59682 2.12 5.94682 2.36 5.34682C2.6 4.73682 2.98 4.17682 3.51 3.67682C4.15 3.04682 4.85 2.73682 5.59 2.73682C5.87 2.73682 6.15 2.79682 6.4 2.91682C6.66 3.03682 6.89 3.21682 7.07 3.47682L9.39 6.74682C9.57 6.99682 9.7 7.22682 9.79 7.44682C9.88 7.65682 9.93 7.86682 9.93 8.05682C9.93 8.29682 9.86 8.53682 9.72 8.76682C9.59 8.99682 9.4 9.23682 9.16 9.47682L8.4 10.2668C8.29 10.3768 8.24 10.5068 8.24 10.6668C8.24 10.7468 8.25 10.8168 8.27 10.8968C8.3 10.9768 8.33 11.0368 8.35 11.0968C8.53 11.4268 8.84 11.8568 9.28 12.3768C9.73 12.8968 10.21 13.4268 10.73 13.9568C10.83 14.0568 10.94 14.1568 11.04 14.2568C11.44 14.6468 11.45 15.2868 11.05 15.6868Z" fill="#375288"/>
<path id="Vector_4" d="M21.9701 19.0669C21.9701 19.3469 21.9201 19.6369 21.8201 19.9169C21.7901 19.9969 21.7601 20.0769 21.7201 20.1569C21.5501 20.5169 21.3301 20.8569 21.0401 21.1769C20.5501 21.7169 20.0101 22.1069 19.4001 22.3569C19.3901 22.3569 19.3801 22.3669 19.3701 22.3669C18.7801 22.6069 18.1401 22.7369 17.4501 22.7369C16.4301 22.7369 15.3401 22.4969 14.1901 22.0069C13.0401 21.5169 11.8901 20.8569 10.7501 20.0269C10.3601 19.7369 9.9701 19.4469 9.6001 19.1369L12.8701 15.8669C13.1501 16.0769 13.4001 16.2369 13.6101 16.3469C13.6601 16.3669 13.7201 16.3969 13.7901 16.4269C13.8701 16.4569 13.9501 16.4669 14.0401 16.4669C14.2101 16.4669 14.3401 16.4069 14.4501 16.2969L15.2101 15.5469C15.4601 15.2969 15.7001 15.1069 15.9301 14.9869C16.1601 14.8469 16.3901 14.7769 16.6401 14.7769C16.8301 14.7769 17.0301 14.8169 17.2501 14.9069C17.4701 14.9969 17.7001 15.1269 17.9501 15.2969L21.2601 17.6469C21.5201 17.8269 21.7001 18.0369 21.8101 18.2869C21.9101 18.5369 21.9701 18.7869 21.9701 19.0669Z" fill="#375288"/>
</g>
</g>
</svg>
