<svg width="20" height="21" viewBox="0 0 20 21" fill="none" xmlns="http://www.w3.org/2000/svg">
<g id="vuesax/outline/clock">
<g id="clock">
<path id="Vector" d="M10 19.4583C5.05834 19.4583 1.04167 15.4417 1.04167 10.5C1.04167 5.55832 5.05834 1.54166 10 1.54166C14.9417 1.54166 18.9583 5.55832 18.9583 10.5C18.9583 15.4417 14.9417 19.4583 10 19.4583ZM10 2.79166C5.75001 2.79166 2.29167 6.24999 2.29167 10.5C2.29167 14.75 5.75001 18.2083 10 18.2083C14.25 18.2083 17.7083 14.75 17.7083 10.5C17.7083 6.24999 14.25 2.79166 10 2.79166Z" fill="#375288"/>
<path id="Vector_2" d="M13.0917 13.775C12.9833 13.775 12.875 13.75 12.775 13.6833L10.1917 12.1417C9.55 11.7583 9.075 10.9167 9.075 10.175V6.75833C9.075 6.41666 9.35833 6.13333 9.7 6.13333C10.0417 6.13333 10.325 6.41666 10.325 6.75833V10.175C10.325 10.475 10.575 10.9167 10.8333 11.0667L13.4167 12.6083C13.7167 12.7833 13.8083 13.1667 13.6333 13.4667C13.5083 13.6667 13.3 13.775 13.0917 13.775Z" fill="#375288"/>
</g>
</g>
</svg>
