<svg width="24" height="25" viewBox="0 0 24 25" fill="none" xmlns="http://www.w3.org/2000/svg">
<g id="vuesax/outline/clock">
<g id="vuesax/outline/clock_2">
<g id="clock">
<path id="Vector" d="M12 23.2411C6.07 23.2411 1.25 18.4211 1.25 12.4911C1.25 6.56109 6.07 1.74109 12 1.74109C17.93 1.74109 22.75 6.56109 22.75 12.4911C22.75 18.4211 17.93 23.2411 12 23.2411ZM12 3.24109C6.9 3.24109 2.75 7.39109 2.75 12.4911C2.75 17.5911 6.9 21.7411 12 21.7411C17.1 21.7411 21.25 17.5911 21.25 12.4911C21.25 7.39109 17.1 3.24109 12 3.24109Z" fill="#6C6C6C"/>
<path id="Vector_2" d="M15.71 16.4211C15.58 16.4211 15.45 16.3911 15.33 16.3111L12.23 14.4611C11.46 14.0011 10.89 12.9911 10.89 12.1011V8.0011C10.89 7.5911 11.23 7.2511 11.64 7.2511C12.05 7.2511 12.39 7.5911 12.39 8.0011V12.1011C12.39 12.4611 12.69 12.9911 13 13.1711L16.1 15.0211C16.46 15.2311 16.57 15.6911 16.36 16.0511C16.21 16.2911 15.96 16.4211 15.71 16.4211Z" fill="#6C6C6C"/>
</g>
</g>
</g>
</svg>
