<svg width="18" height="19" viewBox="0 0 18 19" fill="none" xmlns="http://www.w3.org/2000/svg">
<path d="M8.625 16.8125C4.3875 16.8125 0.9375 13.3625 0.9375 9.125C0.9375 4.8875 4.3875 1.4375 8.625 1.4375C12.8625 1.4375 16.3125 4.8875 16.3125 9.125C16.3125 13.3625 12.8625 16.8125 8.625 16.8125ZM8.625 2.5625C5.0025 2.5625 2.0625 5.51 2.0625 9.125C2.0625 12.74 5.0025 15.6875 8.625 15.6875C12.2475 15.6875 15.1875 12.74 15.1875 9.125C15.1875 5.51 12.2475 2.5625 8.625 2.5625Z" fill="#FEFEFE"/>
<path d="M16.5 17.5625C16.3575 17.5625 16.215 17.51 16.1025 17.3975L14.6025 15.8975C14.385 15.68 14.385 15.32 14.6025 15.1025C14.82 14.885 15.18 14.885 15.3975 15.1025L16.8975 16.6025C17.115 16.82 17.115 17.18 16.8975 17.3975C16.785 17.51 16.6425 17.5625 16.5 17.5625Z" fill="#FEFEFE"/>
</svg>
