<svg width="25" height="24" viewBox="0 0 25 24" fill="none" xmlns="http://www.w3.org/2000/svg">
<path d="M4.48131 11.8505L4.99947 11.3083L4.48131 11.8505L7.01147 14.2684C7.31484 14.5583 7.45251 14.9811 7.378 15.3941L6.75726 18.8346C6.49757 20.2739 8.01336 21.3779 9.30362 20.6891L12.4113 19.03C12.7792 18.8336 13.2208 18.8336 13.5887 19.03L16.6964 20.6891C17.9866 21.3779 19.5024 20.2739 19.2427 18.8346L18.622 15.3941C18.5475 14.9811 18.6852 14.5583 18.9885 14.2684L21.5187 11.8505C22.5781 10.8381 21.9985 9.04988 20.5466 8.85148L17.0627 8.37539C16.6485 8.31879 16.2901 8.05891 16.1075 7.68288L15.4328 8.01047L16.1075 7.68288L14.5742 4.5251C13.9361 3.21093 12.0639 3.21092 11.4258 4.5251L9.89251 7.68288C9.70992 8.05891 9.35146 8.31879 8.93729 8.37539L5.45342 8.85148C4.00154 9.04988 3.42189 10.8381 4.48131 11.8505Z" stroke="url(#paint0_linear_2034_261)" stroke-width="1.5"/>
<defs>
<linearGradient id="paint0_linear_2034_261" x1="5.58095" y1="-0.681815" x2="38.3323" y2="10.6884" gradientUnits="userSpaceOnUse">
<stop stop-color="#2B4984"/>
<stop offset="0.921875" stop-color="#00194B"/>
</linearGradient>
</defs>
</svg>
