<svg width="66" height="66" viewBox="0 0 66 66" fill="none" xmlns="http://www.w3.org/2000/svg">
<g id="Iconsax/Bulk/useroctagon">
<path id="Vector" opacity="0.48" d="M57.97 23.595V42.405C57.97 45.485 56.32 48.345 53.6525 49.9125L37.3175 59.345C34.65 60.885 31.35 60.885 28.655 59.345L12.32 49.9125C11.0048 49.15 9.91352 48.0548 9.15566 46.737C8.3978 45.4192 8.00008 43.9252 8.00245 42.405V23.595C8.00245 20.515 9.65245 17.655 12.32 16.0875L28.655 6.655C31.3225 5.115 34.6225 5.115 37.3175 6.655L53.6525 16.0875C56.32 17.655 57.97 20.4875 57.97 23.595Z" fill="#B7C2D6"/>
<path id="Vector_2" d="M33.0055 33.0001C34.7049 33.0001 36.3347 32.325 37.5363 31.1233C38.7379 29.9217 39.413 28.2919 39.413 26.5926C39.413 24.8932 38.7379 23.2634 37.5363 22.0618C36.3347 20.8601 34.7049 20.1851 33.0055 20.1851C31.3061 20.1851 29.6764 20.8601 28.4747 22.0618C27.2731 23.2634 26.598 24.8932 26.598 26.5926C26.598 28.2919 27.2731 29.9217 28.4747 31.1233C29.6764 32.325 31.3061 33.0001 33.0055 33.0001ZM40.3728 45.8096C42.6003 45.8096 43.8928 43.3346 42.6553 41.4921C40.7853 38.7146 37.1553 36.8446 33.0028 36.8446C28.8503 36.8446 25.2203 38.7146 23.3503 41.4921C22.1128 43.3346 23.4053 45.8096 25.6328 45.8096H40.3728Z" fill="#375288"/>
</g>
</svg>
