<svg width="66" height="66" viewBox="0 0 66 66" fill="none" xmlns="http://www.w3.org/2000/svg">
<g id="Iconsax/Bulk/verify">
<path id="Vector" opacity="0.48" d="M29.5625 6.73738C31.46 5.11488 34.5675 5.11488 36.4925 6.73738L40.8375 10.4774C41.6625 11.1924 43.2025 11.7699 44.3025 11.7699H48.9775C51.8925 11.7699 54.285 14.1624 54.285 17.0774V21.7524C54.285 22.8249 54.8625 24.3924 55.5775 25.2174L59.3175 29.5624C60.94 31.4599 60.94 34.5674 59.3175 36.4924L55.5775 40.8374C54.8625 41.6624 54.285 43.2024 54.285 44.3024V48.9774C54.285 51.8924 51.8925 54.2849 48.9775 54.2849H44.3025C43.23 54.2849 41.6625 54.8624 40.8375 55.5774L36.4925 59.3174C34.595 60.9399 31.4875 60.9399 29.5625 59.3174L25.2175 55.5774C24.3925 54.8624 22.8525 54.2849 21.7525 54.2849H16.995C14.08 54.2849 11.6875 51.8924 11.6875 48.9774V44.2749C11.6875 43.2024 11.11 41.6624 10.4225 40.8374L6.71004 36.4649C5.11504 34.5674 5.11504 31.4874 6.71004 29.5899L10.4225 25.2174C11.11 24.3924 11.6875 22.8524 11.6875 21.7799V17.0499C11.6875 14.1349 14.08 11.7424 16.995 11.7424H21.7525C22.825 11.7424 24.3925 11.1649 25.2175 10.4499L29.5625 6.73738Z" fill="#B7C2D6"/>
<path id="Vector_2" d="M29.6725 41.7202C29.1257 41.7197 28.6014 41.5021 28.215 41.1152L21.56 34.4602C21.1764 34.0721 20.9613 33.5484 20.9613 33.0027C20.9613 32.457 21.1764 31.9333 21.56 31.5452C22.3575 30.7477 23.6775 30.7477 24.475 31.5452L29.6725 36.7427L41.4975 24.9177C42.295 24.1202 43.615 24.1202 44.4125 24.9177C45.21 25.7152 45.21 27.0352 44.4125 27.8327L31.13 41.1152C30.7436 41.5021 30.2193 41.7197 29.6725 41.7202Z" fill="#375288"/>
</g>
</svg>
