<svg width="66" height="66" viewBox="0 0 66 66" fill="none" xmlns="http://www.w3.org/2000/svg">
<g id="Iconsax/Bulk/moneysend">
<path id="Vector" opacity="0.48" d="M46.75 21.3125C46.2275 21.3125 45.705 21.12 45.2925 20.7075C44.9089 20.3194 44.6938 19.7957 44.6938 19.25C44.6938 18.7043 44.9089 18.1806 45.2925 17.7925L50.93 12.155C46.09 8.03 39.8475 5.5 33 5.5C17.82 5.5 5.5 17.82 5.5 33C5.5 48.18 17.82 60.5 33 60.5C48.18 60.5 60.5 48.18 60.5 33C60.5 26.1525 57.97 19.91 53.845 15.07L48.2075 20.7075C47.795 21.12 47.2725 21.3125 46.75 21.3125Z" fill="#B7C2D6"/>
<path id="Vector_2" d="M37.8125 32.5051L35.0625 31.5426V25.4376H35.2825C36.685 25.4376 37.8125 26.6751 37.8125 28.1876C37.8125 29.3151 38.7475 30.2501 39.875 30.2501C41.0025 30.2501 41.9375 29.3151 41.9375 28.1876C41.9375 24.3926 38.9675 21.3126 35.2825 21.3126H35.0625V20.6251C35.0625 19.4976 34.1275 18.5626 33 18.5626C31.8725 18.5626 30.9375 19.4976 30.9375 20.6251V21.3126H30.1125C26.785 21.3126 24.0625 24.1176 24.0625 27.5826C24.0625 31.5976 26.4 32.8901 28.1875 33.5226L30.9375 34.4851V40.5901H30.7175C29.315 40.5901 28.1875 39.3526 28.1875 37.8401C28.1875 36.7126 27.2525 35.7776 26.125 35.7776C24.9975 35.7776 24.0625 36.7126 24.0625 37.8401C24.0625 41.6351 27.0325 44.7151 30.7175 44.7151H30.9375V45.4026C30.9375 46.5301 31.8725 47.4651 33 47.4651C34.1275 47.4651 35.0625 46.5301 35.0625 45.4026V44.7151H35.8875C39.215 44.7151 41.9375 41.9101 41.9375 38.4451C41.9375 34.4026 39.6 33.1101 37.8125 32.5051ZM29.535 29.5901C28.6 29.2601 28.1875 29.0676 28.1875 27.5551C28.1875 26.3726 29.0675 25.4101 30.1125 25.4101H30.9375V30.0576L29.535 29.5901ZM35.8875 40.5626H35.0625V35.9151L36.465 36.4101C37.4 36.7401 37.8125 36.9326 37.8125 38.4451C37.8125 39.6001 36.9325 40.5626 35.8875 40.5626ZM62.392 4.69706C62.1745 4.19063 61.7709 3.78702 61.2645 3.56956C61.013 3.45966 60.7414 3.40346 60.467 3.40456H49.467C48.3395 3.40456 47.4045 4.33956 47.4045 5.46706C47.4045 6.59456 48.3395 7.52956 49.467 7.52956H55.4895L50.897 12.1221C51.942 13.0296 52.9045 13.9921 53.812 15.0371L58.4045 10.4446V16.4946C58.4045 17.6221 59.3395 18.5571 60.467 18.5571C61.5945 18.5571 62.5295 17.6221 62.5295 16.4946V5.49456C62.557 5.21956 62.502 4.97206 62.392 4.69706Z" fill="#375288"/>
</g>
</svg>
