<svg width="24" height="25" viewBox="0 0 24 25" fill="none" xmlns="http://www.w3.org/2000/svg">
<g id="iconoir:linkedin">
<g id="Group">
<path id="Vector" d="M7 17.7368V10.7368M21 8.73682V16.7368C21 18.0629 20.4732 19.3347 19.5355 20.2723C18.5978 21.21 17.3261 21.7368 16 21.7368H8C6.67392 21.7368 5.40215 21.21 4.46447 20.2723C3.52678 19.3347 3 18.0629 3 16.7368V8.73682C3 7.41073 3.52678 6.13896 4.46447 5.20128C5.40215 4.2636 6.67392 3.73682 8 3.73682H16C17.3261 3.73682 18.5978 4.2636 19.5355 5.20128C20.4732 6.13896 21 7.41073 21 8.73682Z" stroke="white" stroke-width="1.5" stroke-linecap="round" stroke-linejoin="round"/>
<path id="Vector_2" d="M10.9995 17.7368V14.4868M10.9995 10.7368V14.4868M10.9995 14.4868C10.9995 10.7368 16.9995 10.7368 16.9995 14.4868V17.7368M6.99951 7.74684L7.00951 7.73584" stroke="white" stroke-width="1.5" stroke-linecap="round" stroke-linejoin="round"/>
</g>
</g>
</svg>
