<svg width="20" height="20" viewBox="0 0 20 20" fill="none" xmlns="http://www.w3.org/2000/svg">
<g id="vuesax/outline/category">
<g id="vuesax/outline/category_2">
<g id="category">
<path id="Vector" d="M5.83329 8.95841H4.16663C2.14996 8.95841 1.04163 7.85008 1.04163 5.83341V4.16675C1.04163 2.15008 2.14996 1.04175 4.16663 1.04175H5.83329C7.84996 1.04175 8.95829 2.15008 8.95829 4.16675V5.83341C8.95829 7.85008 7.84996 8.95841 5.83329 8.95841ZM4.16663 2.29175C2.84996 2.29175 2.29163 2.85008 2.29163 4.16675V5.83341C2.29163 7.15008 2.84996 7.70841 4.16663 7.70841H5.83329C7.14996 7.70841 7.70829 7.15008 7.70829 5.83341V4.16675C7.70829 2.85008 7.14996 2.29175 5.83329 2.29175H4.16663Z" fill="#375288"/>
<path id="Vector_2" d="M15.8333 8.95841H14.1666C12.15 8.95841 11.0416 7.85008 11.0416 5.83341V4.16675C11.0416 2.15008 12.15 1.04175 14.1666 1.04175H15.8333C17.85 1.04175 18.9583 2.15008 18.9583 4.16675V5.83341C18.9583 7.85008 17.85 8.95841 15.8333 8.95841ZM14.1666 2.29175C12.85 2.29175 12.2916 2.85008 12.2916 4.16675V5.83341C12.2916 7.15008 12.85 7.70841 14.1666 7.70841H15.8333C17.15 7.70841 17.7083 7.15008 17.7083 5.83341V4.16675C17.7083 2.85008 17.15 2.29175 15.8333 2.29175H14.1666Z" fill="#375288"/>
<path id="Vector_3" d="M15.8333 18.9584H14.1666C12.15 18.9584 11.0416 17.8501 11.0416 15.8334V14.1667C11.0416 12.1501 12.15 11.0417 14.1666 11.0417H15.8333C17.85 11.0417 18.9583 12.1501 18.9583 14.1667V15.8334C18.9583 17.8501 17.85 18.9584 15.8333 18.9584ZM14.1666 12.2917C12.85 12.2917 12.2916 12.8501 12.2916 14.1667V15.8334C12.2916 17.1501 12.85 17.7084 14.1666 17.7084H15.8333C17.15 17.7084 17.7083 17.1501 17.7083 15.8334V14.1667C17.7083 12.8501 17.15 12.2917 15.8333 12.2917H14.1666Z" fill="#375288"/>
<path id="Vector_4" d="M5.83329 18.9584H4.16663C2.14996 18.9584 1.04163 17.8501 1.04163 15.8334V14.1667C1.04163 12.1501 2.14996 11.0417 4.16663 11.0417H5.83329C7.84996 11.0417 8.95829 12.1501 8.95829 14.1667V15.8334C8.95829 17.8501 7.84996 18.9584 5.83329 18.9584ZM4.16663 12.2917C2.84996 12.2917 2.29163 12.8501 2.29163 14.1667V15.8334C2.29163 17.1501 2.84996 17.7084 4.16663 17.7084H5.83329C7.14996 17.7084 7.70829 17.1501 7.70829 15.8334V14.1667C7.70829 12.8501 7.14996 12.2917 5.83329 12.2917H4.16663Z" fill="#375288"/>
</g>
</g>
</g>
</svg>
