<svg width="20" height="20" viewBox="0 0 20 20" fill="none" xmlns="http://www.w3.org/2000/svg">
<path d="M9.99996 18.9584C5.05829 18.9584 1.04163 14.9417 1.04163 10.0001C1.04163 5.05841 5.05829 1.04175 9.99996 1.04175C14.9416 1.04175 18.9583 5.05841 18.9583 10.0001C18.9583 14.9417 14.9416 18.9584 9.99996 18.9584ZM9.99996 2.29175C5.74996 2.29175 2.29163 5.75008 2.29163 10.0001C2.29163 14.2501 5.74996 17.7084 9.99996 17.7084C14.25 17.7084 17.7083 14.2501 17.7083 10.0001C17.7083 5.75008 14.25 2.29175 9.99996 2.29175Z" fill="#375288"/>
<path d="M13.0916 13.275C12.9833 13.275 12.875 13.25 12.775 13.1833L10.1916 11.6416C9.54995 11.2583 9.07495 10.4166 9.07495 9.67497V6.2583C9.07495 5.91663 9.35828 5.6333 9.69995 5.6333C10.0416 5.6333 10.325 5.91663 10.325 6.2583V9.67497C10.325 9.97497 10.575 10.4166 10.8333 10.5666L13.4166 12.1083C13.7166 12.2833 13.8083 12.6666 13.6333 12.9666C13.5083 13.1666 13.3 13.275 13.0916 13.275Z" fill="#375288"/>
</svg>
