<svg width="24" height="25" viewBox="0 0 24 25" fill="none" xmlns="http://www.w3.org/2000/svg">
<g id="carbon:logo-twitter">
<path id="Vector" d="M8.516 20.2366C9.86243 20.2451 11.1971 19.9861 12.4427 19.4748C13.6883 18.9634 14.8199 18.2099 15.772 17.2578C16.7241 16.3057 17.4777 15.174 17.9891 13.9284C18.5004 12.6829 18.7594 11.3482 18.7509 10.0017V9.53143C19.4488 9.02008 20.0529 8.3917 20.5364 7.67417C19.8792 7.9616 19.1838 8.15223 18.4719 8.24011C19.2267 7.79037 19.793 7.08245 20.0661 6.24734C19.3627 6.66936 18.5913 6.96604 17.7864 7.12416C17.2443 6.54655 16.527 6.16369 15.7454 6.03482C14.9638 5.90595 14.1615 6.03826 13.4627 6.41127C12.7638 6.78428 12.2074 7.3772 11.8795 8.09829C11.5516 8.81938 11.4704 9.62844 11.6486 10.4003C10.2186 10.3301 8.81947 9.9595 7.54222 9.31263C6.26496 8.66576 5.13828 7.75713 4.23552 6.64589C3.78031 7.43597 3.64233 8.3695 3.84953 9.25748C4.05672 10.1455 4.59361 10.9215 5.35147 11.4286C4.79239 11.407 4.24624 11.2541 3.75725 10.9822V11.022C3.75229 11.8477 4.03044 12.6501 4.54536 13.2956C5.06028 13.9411 5.78086 14.3906 6.58699 14.5692C6.06699 14.709 5.52229 14.7308 4.99277 14.6329C5.22616 15.3371 5.67166 15.9518 6.26819 16.3928C6.86471 16.8338 7.58306 17.0794 8.32469 17.096C7.05666 18.1167 5.48068 18.6786 3.85291 18.6902C3.56751 18.682 3.28277 18.658 3 18.6185C4.64759 19.6682 6.56245 20.2216 8.516 20.2127" fill="white"/>
</g>
</svg>
