<svg width="18" height="19" viewBox="0 0 18 19" fill="none" xmlns="http://www.w3.org/2000/svg">
<path d="M10.6963 12.4985H6.94629" stroke="#375288" stroke-miterlimit="10" stroke-linecap="round" stroke-linejoin="round"/>
<path d="M9.49521 2.3886L9.47271 2.4411L7.29771 7.4886H5.16021C4.65021 7.4886 4.16271 7.5936 3.72021 7.7811L5.03271 4.6461L5.06271 4.5711L5.11521 4.4511C5.13021 4.4061 5.14521 4.3611 5.16771 4.3236C6.15021 2.0511 7.26021 1.5336 9.49521 2.3886Z" stroke="#375288" stroke-linecap="round" stroke-linejoin="round"/>
<path d="M13.5374 7.63861C13.1999 7.53361 12.8399 7.48861 12.4799 7.48861H7.29736L9.47236 2.44111L9.49486 2.38861C9.60736 2.42611 9.71236 2.47861 9.82486 2.52361L11.4824 3.22111C12.4049 3.60361 13.0499 4.00111 13.4399 4.48111C13.5149 4.57111 13.5749 4.65361 13.6274 4.75111C13.6949 4.85611 13.7474 4.96111 13.7774 5.07361C13.8074 5.14111 13.8299 5.20861 13.8449 5.26861C14.0474 5.89861 13.9274 6.67111 13.5374 7.63861Z" stroke="#375288" stroke-linecap="round" stroke-linejoin="round"/>
<path d="M16.1413 11.1488V12.6113C16.1413 12.7613 16.1338 12.9113 16.1263 13.0613C15.9838 15.6788 14.5213 16.9988 11.7463 16.9988H5.89629C5.71629 16.9988 5.53629 16.9838 5.36379 16.9613C2.97879 16.8038 1.70379 15.5288 1.54629 13.1438C1.52379 12.9713 1.50879 12.7913 1.50879 12.6113V11.1488C1.50879 9.64127 2.42379 8.34377 3.72879 7.78127C4.17879 7.59377 4.65879 7.48877 5.16879 7.48877H12.4888C12.8563 7.48877 13.2163 7.54127 13.5463 7.63877C15.0388 8.09627 16.1413 9.49127 16.1413 11.1488Z" stroke="#375288" stroke-linecap="round" stroke-linejoin="round"/>
<path d="M5.0325 4.64612L3.72 7.78112C2.415 8.34362 1.5 9.64112 1.5 11.1486V8.95112C1.5 6.82112 3.015 5.04362 5.0325 4.64612Z" stroke="#375288" stroke-linecap="round" stroke-linejoin="round"/>
<path d="M16.1389 8.95074V11.1482C16.1389 9.49824 15.0439 8.09574 13.5439 7.64574C13.9339 6.67074 14.0464 5.90574 13.8589 5.26824C13.8439 5.20074 13.8214 5.13324 13.7914 5.07324C15.1864 5.79324 16.1389 7.27074 16.1389 8.95074Z" stroke="#375288" stroke-linecap="round" stroke-linejoin="round"/>
</svg>
