<svg width="18" height="18" viewBox="0 0 18 18" fill="none" xmlns="http://www.w3.org/2000/svg">
<path d="M1.28516 0H13.9994C16.2086 0 17.9994 1.79086 17.9994 4V16.7143H1.28516V0Z" fill="#375288"/>
<path d="M1.28516 5.14307H9.85659C11.5134 5.14307 12.8566 6.48621 12.8566 8.14307V16.7145H1.28516V5.14307Z" fill="#FEFEFE"/>
<path d="M0 6.42871H9.57143C10.676 6.42871 11.5714 7.32414 11.5714 8.42871V18.0001H2C0.895428 18.0001 0 17.1047 0 16.0001V6.42871Z" fill="#00ACEE"/>
<path d="M3.81854 13.4287L3.09054 8.50771H4.19654L4.55354 12.3017H4.59554L5.14154 9.67671H6.42954L6.97554 12.3017H7.01754L7.37454 8.50771H8.48054L7.75254 13.4287H6.38054L5.80654 10.7197H5.76454L5.19054 13.4287H3.81854Z" fill="#FEFEFE"/>
</svg>
