<svg width="25" height="25" viewBox="0 0 25 25" fill="none" xmlns="http://www.w3.org/2000/svg">
<g id="vuesax/outline/camera">
<g id="vuesax/outline/camera_2">
<g id="camera">
<path id="Vector" d="M18.0193 23.4957H7.53935C4.73935 23.4957 2.95935 21.8257 2.79935 19.0357L2.27935 10.7857C2.19935 9.53573 2.62935 8.33573 3.48935 7.42573C4.33935 6.51573 5.53935 5.99573 6.77935 5.99573C7.09935 5.99573 7.40935 5.80573 7.55935 5.50573L8.27935 4.07573C8.86935 2.90573 10.3493 1.99573 11.6393 1.99573H13.9293C15.2193 1.99573 16.6893 2.90573 17.2793 4.06573L17.9993 5.52573C18.1493 5.80573 18.4493 5.99573 18.7793 5.99573C20.0193 5.99573 21.2193 6.51573 22.0693 7.42573C22.9293 8.34573 23.3593 9.53573 23.2793 10.7857L22.7593 19.0457C22.5793 21.8757 20.8493 23.4957 18.0193 23.4957ZM11.6393 3.49573C10.8993 3.49573 9.95935 4.07573 9.61935 4.74573L8.89935 6.18573C8.47935 6.99573 7.66935 7.49573 6.77935 7.49573C5.93935 7.49573 5.15935 7.83573 4.57935 8.44573C4.00935 9.05573 3.71935 9.85573 3.77935 10.6857L4.29935 18.9457C4.41935 20.9657 5.50935 21.9957 7.53935 21.9957H18.0193C20.0393 21.9957 21.1293 20.9657 21.2593 18.9457L21.7793 10.6857C21.8293 9.85573 21.5493 9.05573 20.9793 8.44573C20.3993 7.83573 19.6193 7.49573 18.7793 7.49573C17.8893 7.49573 17.0793 6.99573 16.6593 6.20573L15.9293 4.74573C15.5993 4.08573 14.6593 3.50573 13.9193 3.50573H11.6393V3.49573Z" fill="#6C6C6C"/>
<path id="Vector_2" d="M14.2793 9.49573H11.2793C10.8693 9.49573 10.5293 9.15573 10.5293 8.74573C10.5293 8.33573 10.8693 7.99573 11.2793 7.99573H14.2793C14.6893 7.99573 15.0293 8.33573 15.0293 8.74573C15.0293 9.15573 14.6893 9.49573 14.2793 9.49573Z" fill="#6C6C6C"/>
<path id="Vector_3" d="M12.7793 19.4957C10.5693 19.4957 8.7793 17.7057 8.7793 15.4957C8.7793 13.2857 10.5693 11.4957 12.7793 11.4957C14.9893 11.4957 16.7793 13.2857 16.7793 15.4957C16.7793 17.7057 14.9893 19.4957 12.7793 19.4957ZM12.7793 12.9957C11.3993 12.9957 10.2793 14.1157 10.2793 15.4957C10.2793 16.8757 11.3993 17.9957 12.7793 17.9957C14.1593 17.9957 15.2793 16.8757 15.2793 15.4957C15.2793 14.1157 14.1593 12.9957 12.7793 12.9957Z" fill="#6C6C6C"/>
</g>
</g>
</g>
</svg>
