<svg width="24" height="25" viewBox="0 0 24 25" fill="none" xmlns="http://www.w3.org/2000/svg">
<path d="M9 22.7368H15C20 22.7368 22 20.7368 22 15.7368V9.73682C22 4.73682 20 2.73682 15 2.73682H9C4 2.73682 2 4.73682 2 9.73682V15.7368C2 20.7368 4 22.7368 9 22.7368Z" stroke="white" stroke-width="1.5" stroke-linecap="round" stroke-linejoin="round"/>
<path d="M12 16.2368C13.933 16.2368 15.5 14.6698 15.5 12.7368C15.5 10.8038 13.933 9.23682 12 9.23682C10.067 9.23682 8.5 10.8038 8.5 12.7368C8.5 14.6698 10.067 16.2368 12 16.2368Z" stroke="white" stroke-width="1.5" stroke-linecap="round" stroke-linejoin="round"/>
<path d="M17.6361 7.73682H17.6477" stroke="white" stroke-width="1.5" stroke-linecap="round" stroke-linejoin="round"/>
</svg>
