<svg width="38" height="38" viewBox="0 0 38 38" fill="none" xmlns="http://www.w3.org/2000/svg">
<g id="vuesax/bold/empty-wallet-change">
<g id="empty-wallet-change">
<path id="Vector" d="M7.91671 23.75C6.30171 23.75 4.81337 24.3675 3.68921 25.3808C3.43587 25.6025 3.19837 25.84 2.99254 26.1092C2.10587 27.2017 1.58337 28.5792 1.58337 30.0833C1.58337 33.5825 4.43337 36.4167 7.91671 36.4167C9.43671 36.4167 10.8142 35.8783 11.9067 35.0075C12.7934 34.2633 13.49 33.2975 13.87 32.1892C14.1234 31.54 14.25 30.8275 14.25 30.0833C14.25 26.6 11.4159 23.75 7.91671 23.75ZM11.7167 28.8642C11.7167 29.3075 11.3684 29.64 10.9409 29.64C10.5134 29.64 10.165 29.3075 10.165 28.8642V28.7058C10.165 28.5317 10.0384 28.3892 9.86421 28.3892H6.69754C6.85587 28.69 6.82421 29.0542 6.57087 29.3075C6.42837 29.45 6.23837 29.5292 6.01671 29.5292C5.82671 29.5292 5.62087 29.45 5.47837 29.3075L4.33837 28.1675C4.27504 28.1042 4.21171 28.0092 4.16421 27.9142C4.10087 27.7242 4.10087 27.5183 4.16421 27.3283C4.21171 27.2492 4.25921 27.1383 4.33837 27.075L5.47837 25.9508C5.77921 25.6342 6.27004 25.6342 6.55504 25.9508C6.80837 26.1883 6.84004 26.5683 6.68171 26.8533H9.86421C10.8775 26.8533 11.7009 27.6767 11.7009 28.7058V28.8642H11.7167ZM9.81671 34.4533C9.61087 34.4533 9.40504 34.39 9.26254 34.2317C9.00921 33.9942 8.97754 33.6142 9.13587 33.3292H5.95337C4.94004 33.3292 4.11671 32.5058 4.11671 31.4767V31.3183C4.11671 30.875 4.46504 30.5425 4.89254 30.5425C5.32004 30.5425 5.66837 30.875 5.66837 31.3183V31.4767C5.66837 31.6508 5.79504 31.7933 5.96921 31.7933H9.15171C8.99337 31.4925 9.02504 31.1283 9.27837 30.875C9.57921 30.5742 10.07 30.5742 10.355 30.875L11.495 32.015C11.5584 32.0783 11.6217 32.1733 11.6692 32.2683C11.7325 32.4583 11.7325 32.6642 11.6692 32.8542C11.6217 32.9333 11.5584 33.0283 11.495 33.0917L10.355 34.2158C10.2125 34.3742 10.0067 34.4533 9.81671 34.4533Z" fill="#375288"/>
<path id="Vector_2" d="M23.5125 6.25418V12.2708H21.1375V6.25418C21.1375 5.82668 20.7575 5.62085 20.5042 5.62085C20.425 5.62085 20.3459 5.63668 20.2667 5.66835L7.71087 10.4025C6.87171 10.7192 6.33337 11.5108 6.33337 12.4134V13.4742C4.89254 14.5508 3.95837 16.2767 3.95837 18.2242V12.4134C3.95837 10.5292 5.11421 8.85085 6.87171 8.18585L19.4434 3.43585C19.7917 3.30918 20.1559 3.24585 20.5042 3.24585C22.0875 3.24585 23.5125 4.52835 23.5125 6.25418Z" fill="#375288"/>
<path id="Vector_3" d="M34.0417 22.9584V24.5417C34.0417 24.9692 33.7092 25.3176 33.2658 25.3334H30.9542C30.115 25.3334 29.355 24.7159 29.2917 23.8926C29.2442 23.4017 29.4342 22.9426 29.7508 22.6259C30.0358 22.3251 30.4317 22.1667 30.8592 22.1667H33.25C33.7092 22.1826 34.0417 22.5309 34.0417 22.9584Z" fill="#375288"/>
<path id="Vector_4" d="M30.8434 20.5041H32.4584C33.3292 20.5041 34.0417 19.7916 34.0417 18.9208V18.2241C34.0417 14.9466 31.3659 12.2708 28.0884 12.2708H9.91171C8.56587 12.2708 7.33087 12.7141 6.33337 13.4741C4.89254 14.5508 3.95837 16.2766 3.95837 18.2241V21.0424C3.95837 21.6441 4.59171 22.0241 5.16171 21.8341C6.04837 21.5333 6.98254 21.3749 7.91671 21.3749C12.7142 21.3749 16.625 25.2858 16.625 30.0833C16.625 31.2233 16.3242 32.4741 15.8492 33.5824C15.5959 34.1524 15.9917 34.8333 16.6092 34.8333H28.0884C31.3659 34.8333 34.0417 32.1574 34.0417 28.8799V28.5791C34.0417 27.7083 33.3292 26.9958 32.4584 26.9958H31.0809C29.5609 26.9958 28.1042 26.0616 27.7084 24.5891C27.3917 23.3858 27.7717 22.2141 28.5634 21.4541C29.1492 20.8524 29.9567 20.5041 30.8434 20.5041ZM22.1667 20.1874H14.25C13.6009 20.1874 13.0625 19.6491 13.0625 18.9999C13.0625 18.3508 13.6009 17.8124 14.25 17.8124H22.1667C22.8159 17.8124 23.3542 18.3508 23.3542 18.9999C23.3542 19.6491 22.8159 20.1874 22.1667 20.1874Z" fill="#375288"/>
</g>
</g>
</svg>
