<svg width="24" height="25" viewBox="0 0 24 25" fill="none" xmlns="http://www.w3.org/2000/svg">
<g id="vuesax/bold/location">
<path id="Vector" d="M20.6201 9.18682C19.5701 4.56682 15.5401 2.48682 12.0001 2.48682C12.0001 2.48682 12.0001 2.48682 11.9901 2.48682C8.4601 2.48682 4.4201 4.55682 3.3701 9.17682C2.2001 14.3368 5.3601 18.7068 8.2201 21.4568C9.2801 22.4768 10.6401 22.9868 12.0001 22.9868C13.3601 22.9868 14.7201 22.4768 15.7701 21.4568C18.6301 18.7068 21.7901 14.3468 20.6201 9.18682ZM12.0001 14.1968C10.2601 14.1968 8.8501 12.7868 8.8501 11.0468C8.8501 9.30682 10.2601 7.89682 12.0001 7.89682C13.7401 7.89682 15.1501 9.30682 15.1501 11.0468C15.1501 12.7868 13.7401 14.1968 12.0001 14.1968Z" fill="#375288"/>
</g>
</svg>
