<svg width="20" height="20" viewBox="0 0 20 20" fill="none" xmlns="http://www.w3.org/2000/svg">
<g id="vuesax/outline/login">
<g id="vuesax/outline/login_2">
<g id="login">
<path id="Vector" d="M7.43501 18.13H7.53792C11.0529 18.13 12.7471 16.7446 13.04 13.6412C13.0717 13.3166 12.8342 13.0237 12.5017 12.9921C12.1771 12.9604 11.8842 13.2058 11.8525 13.5304C11.6229 16.0162 10.4513 16.9425 7.53001 16.9425H7.42709C4.20501 16.9425 3.06501 15.8025 3.06501 12.5804V7.41872C3.06501 4.19664 4.20501 3.05664 7.42709 3.05664H7.53001C10.4671 3.05664 11.6388 3.99872 11.8525 6.53206C11.8921 6.85664 12.1613 7.10206 12.5017 7.07039C12.8342 7.04664 13.0717 6.75372 13.0479 6.42914C12.7788 3.27831 11.0767 1.86914 7.53792 1.86914H7.43501C3.54792 1.86914 1.88542 3.53164 1.88542 7.41872V12.5804C1.88542 16.4675 3.54792 18.13 7.43501 18.13Z" fill="#375288"/>
<path id="Vector_2" d="M7.72008 10.5938H17.9167C18.2413 10.5938 18.5105 10.3246 18.5105 10C18.5105 9.67542 18.2413 9.40625 17.9167 9.40625H7.72008C7.3955 9.40625 7.12633 9.67542 7.12633 10C7.12633 10.3246 7.38758 10.5938 7.72008 10.5938Z" fill="#375288"/>
<path id="Vector_3" d="M9.48538 13.2455C9.63579 13.2455 9.78621 13.1901 9.90496 13.0714C10.1345 12.8418 10.1345 12.4618 9.90496 12.2322L7.67246 9.99971L9.90496 7.76721C10.1345 7.53763 10.1345 7.15763 9.90496 6.92805C9.67538 6.69846 9.29538 6.69846 9.06579 6.92805L6.41371 9.58013C6.18413 9.80971 6.18413 10.1897 6.41371 10.4193L9.06579 13.0714C9.18454 13.1901 9.33496 13.2455 9.48538 13.2455Z" fill="#375288"/>
</g>
</g>
</g>
</svg>
