<svg width="24" height="24" viewBox="0 0 24 24" fill="none" xmlns="http://www.w3.org/2000/svg">
<path d="M8.75998 22.27H8.88999C13.33 22.27 15.47 20.52 15.84 16.6C15.88 16.19 15.58 15.82 15.16 15.78C14.75 15.74 14.38 16.05 14.34 16.46C14.05 19.6 12.57 20.77 8.87998 20.77H8.74998C4.67999 20.77 3.23998 19.33 3.23998 15.26V8.73998C3.23998 4.66998 4.67999 3.22998 8.74998 3.22998H8.87998C12.59 3.22998 14.07 4.41998 14.34 7.61998C14.39 8.02998 14.73 8.33998 15.16 8.29998C15.58 8.26998 15.88 7.89998 15.85 7.48998C15.51 3.50998 13.36 1.72998 8.88999 1.72998H8.75998C3.84999 1.72998 1.74998 3.82998 1.74998 8.73998V15.26C1.74998 20.17 3.84999 22.27 8.75998 22.27Z" fill="#FEFEFE"/>
<path d="M9.12 12.75H22C22.41 12.75 22.75 12.41 22.75 12C22.75 11.59 22.41 11.25 22 11.25H9.12C8.71 11.25 8.37 11.59 8.37 12C8.37 12.41 8.7 12.75 9.12 12.75Z" fill="#FEFEFE"/>
<path d="M11.3499 16.1001C11.5399 16.1001 11.7299 16.0301 11.8799 15.8801C12.1699 15.5901 12.1699 15.1101 11.8799 14.8201L9.05991 12.0001L11.8799 9.18009C12.1699 8.89009 12.1699 8.41009 11.8799 8.12009C11.5899 7.83009 11.1099 7.83009 10.8199 8.12009L7.46991 11.4701C7.17991 11.7601 7.17991 12.2401 7.46991 12.5301L10.8199 15.8801C10.9699 16.0301 11.1599 16.1001 11.3499 16.1001Z" fill="#FEFEFE"/>
</svg>
