<svg width="20" height="20" viewBox="0 0 20 20" fill="none" xmlns="http://www.w3.org/2000/svg">
<path d="M14.1334 5.1416C15.8 6.29993 16.95 8.1416 17.1834 10.2666" stroke="#375288" stroke-width="1.5" stroke-linecap="round" stroke-linejoin="round"/>
<path d="M2.90833 10.3083C3.12499 8.19168 4.25833 6.35002 5.90833 5.18335" stroke="#375288" stroke-width="1.5" stroke-linecap="round" stroke-linejoin="round"/>
<path d="M6.82501 17.45C7.79168 17.9416 8.89168 18.2166 10.05 18.2166C11.1667 18.2166 12.2167 17.9666 13.1583 17.5083" stroke="#375288" stroke-width="1.5" stroke-linecap="round" stroke-linejoin="round"/>
<path d="M10.05 6.41678C11.3295 6.41678 12.3667 5.37957 12.3667 4.10011C12.3667 2.82065 11.3295 1.78345 10.05 1.78345C8.77054 1.78345 7.73334 2.82065 7.73334 4.10011C7.73334 5.37957 8.77054 6.41678 10.05 6.41678Z" stroke="#375288" stroke-width="1.5" stroke-linecap="round" stroke-linejoin="round"/>
<path d="M4.02498 16.5999C5.30444 16.5999 6.34165 15.5627 6.34165 14.2832C6.34165 13.0038 5.30444 11.9666 4.02498 11.9666C2.74552 11.9666 1.70831 13.0038 1.70831 14.2832C1.70831 15.5627 2.74552 16.5999 4.02498 16.5999Z" stroke="#375288" stroke-width="1.5" stroke-linecap="round" stroke-linejoin="round"/>
<path d="M15.975 16.5999C17.2545 16.5999 18.2917 15.5627 18.2917 14.2832C18.2917 13.0038 17.2545 11.9666 15.975 11.9666C14.6955 11.9666 13.6583 13.0038 13.6583 14.2832C13.6583 15.5627 14.6955 16.5999 15.975 16.5999Z" stroke="#375288" stroke-width="1.5" stroke-linecap="round" stroke-linejoin="round"/>
</svg>
