<svg width="24" height="24" viewBox="0 0 24 24" fill="none" xmlns="http://www.w3.org/2000/svg">
<g id="carbon:logo-twitter">
<path id="Vector" d="M8.516 19.4998C9.86243 19.5083 11.1971 19.2493 12.4427 18.738C13.6883 18.2266 14.8199 17.473 15.772 16.5209C16.7241 15.5689 17.4777 14.4372 17.9891 13.1916C18.5004 11.9461 18.7594 10.6113 18.7509 9.26491V8.79461C19.4488 8.28326 20.0529 7.65488 20.5364 6.93735C19.8792 7.22478 19.1838 7.41542 18.4719 7.5033C19.2267 7.05355 19.793 6.34563 20.0661 5.51052C19.3627 5.93254 18.5913 6.22922 17.7864 6.38734C17.2443 5.80973 16.527 5.42687 15.7454 5.298C14.9638 5.16913 14.1615 5.30144 13.4627 5.67445C12.7638 6.04746 12.2074 6.64038 11.8795 7.36147C11.5516 8.08256 11.4704 8.89162 11.6486 9.66346C10.2186 9.59327 8.81947 9.22268 7.54222 8.57581C6.26496 7.92895 5.13828 7.02031 4.23552 5.90908C3.78031 6.69915 3.64233 7.63269 3.84953 8.52067C4.05672 9.40864 4.59361 10.1847 5.35147 10.6917C4.79239 10.6702 4.24624 10.5173 3.75725 10.2454V10.2852C3.75229 11.1109 4.03044 11.9133 4.54536 12.5588C5.06028 13.2042 5.78086 13.6537 6.58699 13.8323C6.06699 13.9722 5.52229 13.994 4.99277 13.8961C5.22616 14.6003 5.67166 15.215 6.26819 15.656C6.86471 16.0969 7.58306 16.3426 8.32469 16.3592C7.05666 17.3799 5.48068 17.9418 3.85291 17.9534C3.56751 17.9451 3.28277 17.9212 3 17.8817C4.64759 18.9314 6.56245 19.4848 8.516 19.4759" fill="#375288"/>
</g>
</svg>
